<?xml version="1.0" encoding="utf-8"?>
<!-- Generator: Adobe Illustrator 18.1.1, SVG Export Plug-In . SVG Version: 6.00 Build 0)  -->
<svg version="1.1" xmlns="http://www.w3.org/2000/svg" xmlns:xlink="http://www.w3.org/1999/xlink" x="0px" y="0px"
	 viewBox="-224 404.9 137 32" enable-background="new -224 404.9 137 32" xml:space="preserve">
<g id="Warstwa_1">
	<path fill="#15847D" d="M-218,404.9h125c3.3,0,6,2.7,6,6v20c0,3.3-2.7,6-6,6h-125c-3.3,0-6-2.7-6-6v-20
		C-224,407.5-221.3,404.9-218,404.9z"/>
</g>
<g id="Warstwa_4">
	<g>
		<path fill="#FFFFFF" d="M-185.9,426h-2.1v-8.2h-2.7V416h7.5v1.8h-2.7V426z"/>
		<path fill="#FFFFFF" d="M-177.5,418.2c0.3,0,0.5,0,0.7,0.1l-0.2,2c-0.2,0-0.4-0.1-0.6-0.1c-0.7,0-1.2,0.2-1.6,0.5
			s-0.6,0.8-0.6,1.4v3.9h-2.1v-7.6h1.6l0.3,1.3h0.1c0.2-0.4,0.6-0.8,1-1S-178,418.2-177.5,418.2z"/>
		<path fill="#FFFFFF" d="M-172,426.2c-1.2,0-2.2-0.3-2.9-1c-0.7-0.7-1-1.6-1-2.9c0-1.3,0.3-2.3,1-3s1.5-1,2.7-1
			c1.1,0,1.9,0.3,2.5,0.9s0.9,1.5,0.9,2.5v1h-4.9c0,0.6,0.2,1.1,0.5,1.4c0.3,0.3,0.8,0.5,1.4,0.5c0.5,0,0.9,0,1.3-0.1
			s0.8-0.2,1.3-0.5v1.6c-0.4,0.2-0.8,0.3-1.2,0.4S-171.4,426.2-172,426.2z M-172.3,419.7c-0.4,0-0.8,0.1-1,0.4s-0.4,0.7-0.4,1.2h2.9
			c0-0.5-0.1-0.9-0.4-1.2S-171.8,419.7-172.3,419.7z"/>
		<path fill="#FFFFFF" d="M-160.1,426h-2.1v-4.5c0-0.6-0.1-1-0.3-1.2s-0.5-0.4-0.9-0.4c-0.6,0-1,0.2-1.3,0.6s-0.4,1-0.4,1.9v3.6
			h-2.1v-7.6h1.6l0.3,1h0.1c0.2-0.4,0.6-0.6,1-0.8s0.9-0.3,1.4-0.3c0.9,0,1.6,0.2,2,0.7s0.7,1.2,0.7,2.1V426z"/>
		<path fill="#FFFFFF" d="M-152.5,426l-0.3-1h-0.1c-0.2,0.4-0.5,0.6-1,0.8c-0.4,0.2-0.9,0.3-1.4,0.3c-0.9,0-1.6-0.2-2-0.7
			c-0.5-0.5-0.7-1.2-0.7-2.1v-5h2.1v4.5c0,0.6,0.1,1,0.3,1.2c0.2,0.3,0.5,0.4,0.9,0.4c0.6,0,1-0.2,1.3-0.6s0.4-1,0.4-1.9v-3.6h2.1
			v7.6H-152.5z"/>
		<path fill="#FFFFFF" d="M-149.4,429.4c-0.5,0-1-0.1-1.4-0.2v-1.6c0.3,0.1,0.6,0.1,1,0.1c0.4,0,0.6-0.1,0.8-0.3
			c0.2-0.2,0.2-0.5,0.2-0.9v-8.2h2.1v8.5c0,0.8-0.2,1.4-0.7,1.9C-147.8,429.2-148.5,429.4-149.4,429.4z M-148.8,416.4
			c0-0.7,0.4-1,1.1-1c0.8,0,1.1,0.3,1.1,1c0,0.3-0.1,0.6-0.3,0.8c-0.2,0.2-0.5,0.3-0.9,0.3C-148.5,417.4-148.8,417.1-148.8,416.4z"
			/>
		<path fill="#FFFFFF" d="M-135.5,426h-6v-1.2l3.5-4.8h-3.3v-1.6h5.7v1.4l-3.4,4.7h3.6V426z"/>
		<path fill="#FFFFFF" d="M-130.6,426.2c-1.2,0-2.2-0.3-2.9-1c-0.7-0.7-1-1.6-1-2.9c0-1.3,0.3-2.3,1-3c0.6-0.7,1.5-1,2.7-1
			c1.1,0,1.9,0.3,2.5,0.9s0.9,1.5,0.9,2.5v1h-4.9c0,0.6,0.2,1.1,0.5,1.4c0.3,0.3,0.8,0.5,1.4,0.5c0.5,0,0.9,0,1.3-0.1
			s0.8-0.2,1.3-0.5v1.6c-0.4,0.2-0.8,0.3-1.2,0.4S-130,426.2-130.6,426.2z M-130.9,419.7c-0.4,0-0.8,0.1-1,0.4s-0.4,0.7-0.4,1.2h2.9
			c0-0.5-0.1-0.9-0.4-1.2S-130.4,419.7-130.9,419.7z"/>
		<path fill="#FFFFFF" d="M-115.3,426h-2.1v-4.5c0-0.6-0.1-1-0.3-1.2c-0.2-0.3-0.5-0.4-0.9-0.4c-0.5,0-0.9,0.2-1.2,0.6
			s-0.4,1-0.4,1.9v3.6h-2.1v-7.6h1.6l0.3,1h0.1c0.2-0.4,0.5-0.6,0.9-0.8s0.8-0.3,1.3-0.3c1.1,0,1.9,0.4,2.3,1.1h0.2
			c0.2-0.4,0.5-0.6,0.9-0.8c0.4-0.2,0.8-0.3,1.4-0.3c0.9,0,1.5,0.2,2,0.7c0.4,0.4,0.7,1.2,0.7,2.1v5h-2.1v-4.5c0-0.6-0.1-1-0.3-1.2
			c-0.2-0.3-0.5-0.4-0.9-0.4c-0.5,0-0.9,0.2-1.1,0.5c-0.3,0.4-0.4,0.9-0.4,1.7V426z"/>
		<path fill="#FFFFFF" d="M-101.3,426h-2.1v-4.5c0-0.6-0.1-1-0.3-1.2s-0.5-0.4-0.9-0.4c-0.6,0-1,0.2-1.3,0.6s-0.4,1-0.4,1.9v3.6
			h-2.1v-7.6h1.6l0.3,1h0.1c0.2-0.4,0.6-0.6,1-0.8c0.4-0.2,0.9-0.3,1.4-0.3c0.9,0,1.6,0.2,2,0.7s0.7,1.2,0.7,2.1V426z"/>
		<path fill="#FFFFFF" d="M-94.3,426l-0.4-1h-0.1c-0.4,0.4-0.7,0.7-1.1,0.9c-0.4,0.2-0.9,0.3-1.5,0.3c-0.7,0-1.3-0.2-1.7-0.6
			c-0.4-0.4-0.6-1-0.6-1.8c0-0.8,0.3-1.4,0.9-1.8c0.6-0.4,1.4-0.6,2.6-0.6l1.3,0v-0.3c0-0.8-0.4-1.2-1.2-1.2c-0.6,0-1.3,0.2-2.2,0.6
			l-0.7-1.4c0.9-0.5,1.9-0.7,2.9-0.7c1,0,1.8,0.2,2.4,0.7s0.8,1.1,0.8,2v5.1H-94.3z M-94.9,422.5l-0.8,0c-0.6,0-1.1,0.1-1.4,0.3
			c-0.3,0.2-0.4,0.5-0.4,0.9c0,0.6,0.3,0.9,1,0.9c0.5,0,0.9-0.1,1.2-0.4c0.3-0.3,0.4-0.6,0.4-1.1V422.5z M-94.1,427.6
			c0,0.2,0.1,0.3,0.2,0.4c0.1,0.1,0.2,0.1,0.4,0.1c0.3,0,0.5,0,0.8-0.1v1.2c-0.4,0.1-0.7,0.2-1.1,0.2c-0.5,0-0.9-0.1-1.2-0.4
			c-0.3-0.3-0.5-0.7-0.5-1.1c0-0.3,0.1-0.6,0.3-0.9c0.2-0.3,0.5-0.6,1-0.9h1.2c-0.3,0.3-0.6,0.6-0.7,0.8
			C-94,427.1-94.1,427.3-94.1,427.6z"/>
	</g>
</g>
<g id="Warstwa_5">
	<path fill="#FFFFFF" d="M-211.1,416.5h-1.3c-0.4,0-0.7,0.3-0.7,0.7v2.9h-0.7c-0.1,0-0.2,0.1-0.2,0.2v1.3c0,0.1,0.1,0.2,0.2,0.2h0.7
		v2.9c0,0.4,0.3,0.7,0.7,0.7h1.3c0.4,0,0.7-0.3,0.7-0.7v-7.5C-210.5,416.8-210.8,416.5-211.1,416.5z M-196.7,420h-0.7v-2.9
		c0-0.4-0.3-0.7-0.7-0.7h-1.3c-0.4,0-0.7,0.3-0.7,0.7v7.5c0,0.4,0.3,0.7,0.7,0.7h1.3c0.4,0,0.7-0.3,0.7-0.7v-2.9h0.7
		c0.1,0,0.2-0.1,0.2-0.2v-1.3C-196.4,420.1-196.5,420-196.7,420z M-201.5,414.7h-1.3c-0.4,0-0.7,0.3-0.7,0.7v4.6h-3.5v-4.6
		c0-0.4-0.3-0.7-0.7-0.7h-1.3c-0.4,0-0.7,0.3-0.7,0.7v11c0,0.4,0.3,0.7,0.7,0.7h1.3c0.4,0,0.7-0.3,0.7-0.7v-4.6h3.5v4.6
		c0,0.4,0.3,0.7,0.7,0.7h1.3c0.4,0,0.7-0.3,0.7-0.7v-11C-200.8,415-201.1,414.7-201.5,414.7z"/>
</g>
</svg>
