<?xml version="1.0" encoding="utf-8"?>
<!-- Generator: Adobe Illustrator 18.1.1, SVG Export Plug-In . SVG Version: 6.00 Build 0)  -->
<svg width="138" height="32" version="1.1" id="Warstwa_1" xmlns="http://www.w3.org/2000/svg" xmlns:xlink="http://www.w3.org/1999/xlink" x="0px" y="0px"
	 viewBox="-223.2 436.9 138 32" enable-background="new -223.2 436.9 138 32" xml:space="preserve">
<path fill="#15847D" d="M-217.2,436.9h126c3.3,0,6,2.7,6,6v20c0,3.3-2.7,6-6,6h-126c-3.3,0-6-2.7-6-6v-20
	C-223.2,439.5-220.5,436.9-217.2,436.9z"/>
<g>
	<path fill="#FFFFFF" d="M-186.7,458h-2.1v-8.2h-2.7V448h7.5v1.8h-2.7V458z"/>
	<path fill="#FFFFFF" d="M-178.3,450.2c0.3,0,0.5,0,0.7,0.1l-0.2,2c-0.2,0-0.4-0.1-0.6-0.1c-0.7,0-1.2,0.2-1.6,0.5s-0.6,0.8-0.6,1.4
		v3.9h-2.1v-7.6h1.6l0.3,1.3h0.1c0.2-0.4,0.6-0.8,1-1C-179.3,450.4-178.8,450.2-178.3,450.2z"/>
	<path fill="#FFFFFF" d="M-172.8,458.2c-1.2,0-2.2-0.3-2.9-1c-0.7-0.7-1-1.6-1-2.9c0-1.3,0.3-2.3,1-3c0.6-0.7,1.5-1,2.7-1
		c1.1,0,1.9,0.3,2.5,0.9s0.9,1.5,0.9,2.5v1h-4.9c0,0.6,0.2,1.1,0.5,1.4c0.3,0.3,0.8,0.5,1.4,0.5c0.5,0,0.9,0,1.3-0.1
		s0.8-0.2,1.3-0.5v1.6c-0.4,0.2-0.8,0.3-1.2,0.4S-172.2,458.2-172.8,458.2z M-173.1,451.7c-0.4,0-0.8,0.1-1,0.4s-0.4,0.7-0.4,1.2
		h2.9c0-0.5-0.1-0.9-0.4-1.2S-172.6,451.7-173.1,451.7z"/>
	<path fill="#FFFFFF" d="M-160.9,458h-2.1v-4.5c0-0.6-0.1-1-0.3-1.2c-0.2-0.3-0.5-0.4-0.9-0.4c-0.6,0-1,0.2-1.3,0.6s-0.4,1-0.4,1.9
		v3.6h-2.1v-7.6h1.6l0.3,1h0.1c0.2-0.4,0.6-0.6,1-0.8c0.4-0.2,0.9-0.3,1.4-0.3c0.9,0,1.6,0.2,2,0.7c0.5,0.5,0.7,1.2,0.7,2.1V458z"/>
	<path fill="#FFFFFF" d="M-153.4,458l-0.3-1h-0.1c-0.2,0.4-0.5,0.6-1,0.8c-0.4,0.2-0.9,0.3-1.4,0.3c-0.9,0-1.6-0.2-2-0.7
		c-0.5-0.5-0.7-1.2-0.7-2.1v-5h2.1v4.5c0,0.6,0.1,1,0.3,1.2c0.2,0.3,0.5,0.4,0.9,0.4c0.6,0,1-0.2,1.3-0.6s0.4-1,0.4-1.9v-3.6h2.1
		v7.6H-153.4z"/>
	<path fill="#FFFFFF" d="M-150.2,461.4c-0.5,0-1-0.1-1.4-0.2v-1.6c0.3,0.1,0.6,0.1,1,0.1c0.4,0,0.6-0.1,0.8-0.3
		c0.2-0.2,0.2-0.5,0.2-0.9v-8.2h2.1v8.5c0,0.8-0.2,1.4-0.7,1.9C-148.7,461.2-149.3,461.4-150.2,461.4z M-149.7,448.4
		c0-0.7,0.4-1,1.1-1c0.8,0,1.1,0.3,1.1,1c0,0.3-0.1,0.6-0.3,0.8c-0.2,0.2-0.5,0.3-0.9,0.3C-149.3,449.4-149.7,449.1-149.7,448.4z"/>
	<path fill="#FFFFFF" d="M-136.3,458h-6v-1.2l3.5-4.8h-3.3v-1.6h5.7v1.4l-3.4,4.7h3.6V458z"/>
	<path fill="#FFFFFF" d="M-131.4,458.2c-1.2,0-2.2-0.3-2.9-1c-0.7-0.7-1-1.6-1-2.9c0-1.3,0.3-2.3,1-3c0.6-0.7,1.5-1,2.7-1
		c1.1,0,1.9,0.3,2.5,0.9s0.9,1.5,0.9,2.5v1h-4.9c0,0.6,0.2,1.1,0.5,1.4c0.3,0.3,0.8,0.5,1.4,0.5c0.5,0,0.9,0,1.3-0.1
		s0.8-0.2,1.3-0.5v1.6c-0.4,0.2-0.8,0.3-1.2,0.4S-130.8,458.2-131.4,458.2z M-131.7,451.7c-0.4,0-0.8,0.1-1,0.4s-0.4,0.7-0.4,1.2
		h2.9c0-0.5-0.1-0.9-0.4-1.2S-131.2,451.7-131.7,451.7z"/>
	<path fill="#FFFFFF" d="M-116.1,458h-2.1v-4.5c0-0.6-0.1-1-0.3-1.2c-0.2-0.3-0.5-0.4-0.9-0.4c-0.5,0-0.9,0.2-1.2,0.6
		c-0.2,0.4-0.4,1-0.4,1.9v3.6h-2.1v-7.6h1.6l0.3,1h0.1c0.2-0.4,0.5-0.6,0.9-0.8s0.8-0.3,1.3-0.3c1.1,0,1.9,0.4,2.3,1.1h0.2
		c0.2-0.4,0.5-0.6,0.9-0.8c0.4-0.2,0.8-0.3,1.4-0.3c0.9,0,1.5,0.2,2,0.7c0.4,0.4,0.7,1.2,0.7,2.1v5h-2.1v-4.5c0-0.6-0.1-1-0.3-1.2
		c-0.2-0.3-0.5-0.4-0.9-0.4c-0.5,0-0.9,0.2-1.1,0.5c-0.3,0.4-0.4,0.9-0.4,1.7V458z"/>
	<path fill="#FFFFFF" d="M-102.1,458h-2.1v-4.5c0-0.6-0.1-1-0.3-1.2c-0.2-0.3-0.5-0.4-0.9-0.4c-0.6,0-1,0.2-1.3,0.6s-0.4,1-0.4,1.9
		v3.6h-2.1v-7.6h1.6l0.3,1h0.1c0.2-0.4,0.6-0.6,1-0.8c0.4-0.2,0.9-0.3,1.4-0.3c0.9,0,1.6,0.2,2,0.7c0.5,0.5,0.7,1.2,0.7,2.1V458z"/>
	<path fill="#FFFFFF" d="M-95.1,458l-0.4-1h-0.1c-0.4,0.4-0.7,0.7-1.1,0.9c-0.4,0.2-0.9,0.3-1.5,0.3c-0.7,0-1.3-0.2-1.7-0.6
		c-0.4-0.4-0.6-1-0.6-1.8c0-0.8,0.3-1.4,0.9-1.8c0.6-0.4,1.4-0.6,2.6-0.6l1.3,0v-0.3c0-0.8-0.4-1.2-1.2-1.2c-0.6,0-1.3,0.2-2.2,0.6
		l-0.7-1.4c0.9-0.5,1.9-0.7,2.9-0.7c1,0,1.8,0.2,2.4,0.7c0.5,0.4,0.8,1.1,0.8,2v5.1H-95.1z M-95.7,454.5l-0.8,0
		c-0.6,0-1.1,0.1-1.4,0.3c-0.3,0.2-0.4,0.5-0.4,0.9c0,0.6,0.3,0.9,1,0.9c0.5,0,0.9-0.1,1.2-0.4c0.3-0.3,0.4-0.6,0.4-1.1V454.5z
		 M-94.9,459.6c0,0.2,0.1,0.3,0.2,0.4c0.1,0.1,0.2,0.1,0.4,0.1c0.3,0,0.5,0,0.8-0.1v1.2c-0.4,0.1-0.7,0.2-1.1,0.2
		c-0.5,0-0.9-0.1-1.2-0.4c-0.3-0.3-0.5-0.7-0.5-1.1c0-0.3,0.1-0.6,0.3-0.9c0.2-0.3,0.5-0.6,1-0.9h1.2c-0.3,0.3-0.6,0.6-0.7,0.8
		C-94.8,459.1-94.9,459.3-94.9,459.6z"/>
	<path fill="#FFFFFF" d="M-212,448.5h-1.3c-0.4,0-0.7,0.3-0.7,0.7v2.9h-0.7c-0.1,0-0.2,0.1-0.2,0.2v1.3c0,0.1,0.1,0.2,0.2,0.2h0.7
		v2.9c0,0.4,0.3,0.7,0.7,0.7h1.3c0.4,0,0.7-0.3,0.7-0.7v-7.5C-211.3,448.8-211.6,448.5-212,448.5z M-197.5,452h-0.7v-2.9
		c0-0.4-0.3-0.7-0.7-0.7h-1.3c-0.4,0-0.7,0.3-0.7,0.7v7.5c0,0.4,0.3,0.7,0.7,0.7h1.3c0.4,0,0.7-0.3,0.7-0.7v-2.9h0.7
		c0.1,0,0.2-0.1,0.2-0.2v-1.3C-197.3,452.1-197.4,452-197.5,452z M-202.3,446.7h-1.3c-0.4,0-0.7,0.3-0.7,0.7v4.6h-3.5v-4.6
		c0-0.4-0.3-0.7-0.7-0.7h-1.3c-0.4,0-0.7,0.3-0.7,0.7v11c0,0.4,0.3,0.7,0.7,0.7h1.3c0.4,0,0.7-0.3,0.7-0.7v-4.6h3.5v4.6
		c0,0.4,0.3,0.7,0.7,0.7h1.3c0.4,0,0.7-0.3,0.7-0.7v-11C-201.7,447-201.9,446.7-202.3,446.7z"/>
</g>
</svg>
